<?xml version="1.0" encoding="utf-8"?>
<!-- Generator: Adobe Illustrator 22.0.1, SVG Export Plug-In . SVG Version: 6.00 Build 0)  -->
<svg version="1.1" id="Layer_1" xmlns="http://www.w3.org/2000/svg" xmlns:xlink="http://www.w3.org/1999/xlink" x="0px" y="0px"
	 viewBox="0 0 24.1 22.9" style="enable-background:new 0 0 24.1 22.9;" xml:space="preserve">
<style type="text/css">
	.st0{fill:#231F20;}
</style>
<g id="Group_6" transform="translate(20.5 19.499)">
	<path class="st0" d="M-5.9,3.4c-0.3,0-0.5-0.2-0.5-0.5v-8.3h-4.2v8.3c0,0.3-0.2,0.5-0.5,0.5h-6.1c-0.4,0-0.7-0.1-0.9-0.4
		s-0.4-0.6-0.4-0.9v-9.5C-19-7.2-19.6-7.2-20-7.7c-0.6-0.8-0.5-1.9,0.2-2.5L-9.6-19c0.6-0.5,1.5-0.6,2.2-0.1c0,0,0.1,0,0.1,0.1
		l10.2,8.8c0.7,0.6,0.8,1.7,0.2,2.5C2.7-7.2,2-7.2,1.5-7.3v9.5c0,0.3-0.1,0.7-0.4,0.9C0.9,3.3,0.6,3.4,0.3,3.4H-5.9z M-5.4,2.4h5.6
		c0.1,0,0.1,0,0.2-0.1c0.1-0.1,0.1-0.1,0.1-0.2V-8c0-0.2,0.1-0.3,0.2-0.4c0.1-0.1,0.3-0.1,0.5,0c0.4,0.2,1,0.3,1.1,0.1
		c0.3-0.3,0.2-0.8-0.1-1.1l-10.1-8.7c0,0-0.1,0-0.1-0.1c-0.3-0.2-0.7-0.2-1,0l-10.2,8.8c-0.3,0.3-0.4,0.8-0.1,1.1
		c0.1,0.1,0.7,0,1.1-0.1c0.2-0.1,0.3-0.1,0.5,0c0.1,0.1,0.2,0.2,0.2,0.4V2.1c0,0.2,0.1,0.3,0.3,0.3h5.6v-8.3c0-0.3,0.2-0.5,0.5-0.5
		h5.2c0.3,0,0.5,0.2,0.5,0.5V2.4z"/>
</g>
</svg>
