<?xml version="1.0" encoding="utf-8"?>
<!-- Generator: Adobe Illustrator 22.0.1, SVG Export Plug-In . SVG Version: 6.00 Build 0)  -->
<svg version="1.1" id="Layer_1" xmlns="http://www.w3.org/2000/svg" xmlns:xlink="http://www.w3.org/1999/xlink" x="0px" y="0px"
	 viewBox="0 0 19 24" style="enable-background:new 0 0 19 24;" xml:space="preserve">
<style type="text/css">
	.st0{fill:#231F20;}
</style>
<g id="Group_7" transform="translate(22.5 115.5)">
	<path class="st0" d="M-4-111h-3.5c-0.3,0-0.5-0.2-0.5-0.5v-3.5c0-0.3,0.2-0.5,0.5-0.5S-7-115.3-7-115v3h3c0.3,0,0.5,0.2,0.5,0.5
		S-3.7-111-4-111z"/>
	<path class="st0" d="M-4.7-94.4h-13.6c-0.7,0-1.2-0.5-1.2-1.2v-18.7c0-0.7,0.5-1.2,1.2-1.2h10.8c0.3,0,0.6,0.1,0.8,0.4l2.9,2.8
		c0.2,0.2,0.4,0.5,0.4,0.9v15.8c0,0,0,0,0,0.1C-3.5-94.9-4-94.4-4.7-94.4z M-18.3-114.5c-0.1,0-0.2,0.1-0.2,0.2v18.7
		c0,0.1,0.1,0.2,0.2,0.2h13.6c0.1,0,0.2-0.1,0.2-0.2c0,0,0,0,0-0.1v-15.8c0-0.1,0-0.1-0.1-0.1l-2.9-2.9L-18.3-114.5z"/>
	<path class="st0" d="M-7.5-98.5h-8c-0.3,0-0.5-0.2-0.5-0.5s0.2-0.5,0.5-0.5h8c0.3,0,0.5,0.2,0.5,0.5S-7.2-98.5-7.5-98.5z"/>
	<path class="st0" d="M-7.5-101.5h-8c-0.3,0-0.5-0.2-0.5-0.5s0.2-0.5,0.5-0.5h8c0.3,0,0.5,0.2,0.5,0.5S-7.2-101.5-7.5-101.5z"/>
	<path class="st0" d="M-7.5-104.5h-8c-0.3,0-0.5-0.2-0.5-0.5s0.2-0.5,0.5-0.5h8c0.3,0,0.5,0.2,0.5,0.5S-7.2-104.5-7.5-104.5z"/>
	<path class="st0" d="M-10.5-107.5h-5c-0.3,0-0.5-0.2-0.5-0.5s0.2-0.5,0.5-0.5h5c0.3,0,0.5,0.2,0.5,0.5S-10.2-107.5-10.5-107.5z"/>
	<path class="st0" d="M-6.7-91.5h-14.6c-0.7,0-1.2-0.5-1.2-1.2v-18.6c0-0.7,0.6-1.2,1.2-1.2c0.3,0,0.5,0.2,0.5,0.5s-0.2,0.5-0.5,0.5
		c-0.1,0-0.2,0.1-0.2,0.2v18.6c0,0.1,0.1,0.2,0.2,0.2h14.6c0.1,0,0.2-0.1,0.2-0.2c0-0.3,0.2-0.5,0.5-0.5s0.5,0.2,0.5,0.5
		C-5.4-92-6-91.5-6.7-91.5z"/>
</g>
</svg>
