<?xml version="1.0" encoding="utf-8"?>
<!-- Generator: Adobe Illustrator 22.0.1, SVG Export Plug-In . SVG Version: 6.00 Build 0)  -->
<svg version="1.1" id="Layer_1" xmlns="http://www.w3.org/2000/svg" xmlns:xlink="http://www.w3.org/1999/xlink" x="0px" y="0px"
	 viewBox="0 0 24 22" style="enable-background:new 0 0 24 22;" xml:space="preserve">
<style type="text/css">
	.st0{fill:#231F20;}
</style>
<g id="Group_8" transform="translate(20.5 68.5)">
	<path class="st0" d="M3-46.5h-23c-0.3,0-0.5-0.2-0.5-0.5v-21c0-0.3,0.2-0.5,0.5-0.5H3c0.3,0,0.5,0.2,0.5,0.5v21
		C3.5-46.7,3.3-46.5,3-46.5z M-19.5-47.5h22v-20h-22V-47.5z"/>
	<path class="st0" d="M3-64.5H-20c-0.3,0-0.5-0.2-0.5-0.5s0.2-0.5,0.5-0.5H3c0.3,0,0.5,0.2,0.5,0.5S3.2-64.5,3-64.5z"/>
	<path class="st0" d="M-14-49.5h-3c-0.3,0-0.5-0.2-0.5-0.5v-11c0-0.3,0.2-0.5,0.5-0.5h3c0.3,0,0.5,0.2,0.5,0.5v11
		C-13.5-49.7-13.8-49.5-14-49.5z M-16.5-50.5h2v-10h-2V-50.5z"/>
	<path class="st0" d="M0-49.5h-11c-0.3,0-0.5-0.2-0.5-0.5v-11c0-0.3,0.2-0.5,0.5-0.5H0c0.3,0,0.5,0.2,0.5,0.5v11
		C0.5-49.7,0.2-49.5,0-49.5z M-10.5-50.5h10v-10h-10V-50.5z"/>
</g>
</svg>
