<?xml version="1.0" encoding="utf-8"?>
<!-- Generator: Adobe Illustrator 22.0.1, SVG Export Plug-In . SVG Version: 6.00 Build 0)  -->
<svg version="1.1" id="Layer_1" xmlns="http://www.w3.org/2000/svg" xmlns:xlink="http://www.w3.org/1999/xlink" x="0px" y="0px"
	 viewBox="0 0 34 49" style="enable-background:new 0 0 34 49;" xml:space="preserve">
<style type="text/css">
	.st0{fill:#231F20;}
	.st1{enable-background:new    ;}
</style>
<g id="Group_2" transform="translate(1 716)">
	<g id="Group_1" transform="translate(15 19)">
		<path id="Path_1" class="st0" d="M13-730.8l-9.6-2.9c-1.7-0.5-3.5-0.5-5.2,0l-9.6,2.9c-2.2,0.7-3.6,2.7-3.6,5v15.6
			c0,2.3,1.5,4.3,3.6,5l9.6,2.9c1.7,0.5,3.5,0.5,5.2,0l9.6-2.9c2.2-0.7,3.6-2.7,3.6-5v-15.6C16.7-728.1,15.2-730.1,13-730.8z
			 M9.3-715.6c0,1-0.7,1.9-1.7,2.2L2-711.7c-0.4,0.1-0.8,0.2-1.2,0.2c-0.4,0-0.8-0.1-1.2-0.2l-3.8-1.1h0c-0.1,0-0.2,0.1-0.2,0.2v2.6
			c0,0.5-0.4,0.9-0.9,0.9c-0.1,0-0.2,0-0.2,0l-1.6-0.5c-0.4-0.1-0.6-0.4-0.6-0.8v-11.9c0-1.3,1-2.3,2.3-2.3c0.2,0,0.4,0,0.7,0.1
			l5,1.5c0.2,0,0.3,0.1,0.5,0.1c0.2,0,0.4,0,0.5-0.1l4.9-1.5c1.2-0.4,2.5,0.3,2.9,1.5c0.1,0.2,0.1,0.5,0.1,0.7L9.3-715.6L9.3-715.6z
			"/>
		<path id="Path_2" class="st0" d="M5.7-721.3L2-720.1c-0.8,0.2-1.6,0.3-2.4,0l-3.6-1.1c-0.2,0-0.3,0-0.4,0.2c0,0,0,0.1,0,0.1v4.4
			c0,0.1,0.1,0.3,0.2,0.3l4.4,1.3c0.4,0.1,0.7,0.1,1.1,0l4.5-1.4c0.1,0,0.2-0.2,0.2-0.3v-4.4C6.1-721.2,5.9-721.3,5.7-721.3
			C5.7-721.3,5.7-721.3,5.7-721.3z"/>
	</g>
	<g class="st1">
		<path class="st0" d="M2.2-675.7c0.7,0,1.3,0.3,1.4,0.3v-2.8c0-0.1,0.1-0.3,0.3-0.3h0.7c0.1,0,0.3,0.1,0.3,0.3v7.9
			c0,0.1-0.1,0.3-0.3,0.3H4.2c-0.1,0-0.2-0.1-0.3-0.2l-0.1-0.4c0,0-0.7,0.8-1.8,0.8c-1.5,0-2.5-1.3-2.5-2.9
			C-0.5-674.4,0.6-675.7,2.2-675.7z M2.2-671c0.9,0,1.3-0.7,1.4-0.8v-2.4c0,0-0.6-0.3-1.3-0.3c-0.9,0-1.6,0.8-1.6,1.8
			C0.7-671.8,1.3-671,2.2-671z"/>
		<path class="st0" d="M8.9-675.7c1.4,0,2.5,1.1,2.5,2.5c0,0.1,0,0.3,0,0.4c0,0.1-0.1,0.2-0.3,0.2H7.3c0,0.7,0.7,1.5,1.7,1.5
			c0.6,0,1-0.2,1.4-0.5c0.1-0.1,0.2-0.1,0.3,0l0.3,0.5c0.1,0.1,0.1,0.2,0,0.4c-0.4,0.3-1.1,0.7-2.1,0.7c-1.7,0-2.8-1.3-2.8-2.9
			C6.1-674.3,7.2-675.7,8.9-675.7z M10.2-673.4c0-0.7-0.6-1.3-1.4-1.3c-0.9,0-1.4,0.6-1.5,1.3H10.2z"/>
		<path class="st0" d="M12.5-670.4c-0.1-0.1-0.2-0.2-0.1-0.3l0.3-0.5c0.1-0.1,0.2-0.2,0.4-0.1c0.3,0.2,0.7,0.4,1.4,0.4
			c0.5,0,0.7-0.2,0.7-0.5c0-0.4-0.4-0.6-1.2-1c-0.9-0.4-1.5-0.8-1.5-1.8c0-0.7,0.5-1.5,1.8-1.5c0.8,0,1.3,0.2,1.6,0.4
			c0.1,0.1,0.2,0.3,0.1,0.4l-0.2,0.4c-0.1,0.2-0.3,0.2-0.4,0.1c-0.4-0.2-0.8-0.3-1.2-0.3c-0.5,0-0.7,0.2-0.7,0.5
			c0,0.4,0.4,0.6,0.9,0.8c1,0.4,1.8,0.8,1.8,1.8c0,0.9-0.7,1.6-2,1.6C13.4-669.9,12.8-670.2,12.5-670.4z"/>
		<path class="st0" d="M17.3-677.5c0-0.5,0.3-0.8,0.8-0.8c0.5,0,0.8,0.4,0.8,0.8c0,0.4-0.4,0.8-0.8,0.8
			C17.7-676.7,17.3-677.1,17.3-677.5z M17.5-675.3c0-0.1,0.1-0.3,0.3-0.3h0.7c0.1,0,0.3,0.1,0.3,0.3v5c0,0.1-0.1,0.3-0.3,0.3h-0.7
			c-0.1,0-0.3-0.1-0.3-0.3V-675.3z"/>
		<path class="st0" d="M25.4-670c0,1.7-1.1,2.6-2.6,2.6c-0.9,0-1.7-0.5-1.9-0.7c-0.1-0.1-0.1-0.2-0.1-0.3l0.3-0.5
			c0.1-0.1,0.2-0.2,0.4-0.1c0.2,0.2,0.7,0.5,1.3,0.5c0.7,0,1.4-0.4,1.4-1.5v-0.3c-0.1,0.1-0.7,0.4-1.4,0.4c-1.5,0-2.7-1.3-2.7-2.9
			c0-1.6,1.1-2.9,2.6-2.9c1,0,1.7,0.6,1.8,0.7l0.1-0.3c0-0.1,0.1-0.2,0.2-0.2h0.3c0.1,0,0.3,0.1,0.3,0.3V-670z M22.9-671
			c0.7,0,1.3-0.4,1.3-0.4v-2.3c-0.1-0.2-0.6-0.8-1.3-0.8c-0.9,0-1.6,0.8-1.6,1.8C21.3-671.8,22-671,22.9-671z"/>
		<path class="st0" d="M27.1-675.3c0-0.1,0.1-0.3,0.3-0.3h0.3c0.1,0,0.2,0.1,0.2,0.2l0.2,0.5c0.1-0.1,0.8-0.8,1.9-0.8
			c1.7,0,2.1,1.2,2.1,2.6v2.8c0,0.1-0.1,0.3-0.3,0.3h-0.7c-0.1,0-0.3-0.1-0.3-0.3v-2.8c0-0.9-0.4-1.4-1.1-1.4
			c-0.9,0-1.4,0.6-1.5,0.8v3.5c0,0.2-0.1,0.3-0.3,0.3h-0.6c-0.1,0-0.3-0.1-0.3-0.3V-675.3z"/>
	</g>
</g>
</svg>
